<svg xmlns="http://www.w3.org/2000/svg" id="Layer_1" data-name="Layer 1" viewBox="0 0 318.24 271.9"><defs><style>.cls-1{fill:#fff;}</style></defs><path class="cls-1" d="M53.65,113.78c-26.26.64-49.31-20.29-53-45.62a53.88,53.88,0,0,1,45-61.51L46,6.59C63.5,3.94,78.8,9.29,91.59,21.38a20,20,0,0,1,4.59,23A20.34,20.34,0,0,1,76.37,56.5a18.75,18.75,0,0,1-11.54-4.65C61.9,49.4,59,47,54.9,46.78c-6.68-.39-11.65,3.09-13.73,9.59a13.22,13.22,0,0,0,5.69,15C52,74.65,58.25,74,63,69.6,69.53,63.54,77,62,85.26,65,98.1,69.7,102,87.36,92.69,97.38,83.52,107.19,67.72,114.47,53.65,113.78Z" transform="translate(0 0)"></path><path class="cls-1" d="M109,83.11V29.49A23.29,23.29,0,0,1,126.73,6.35c12.64-3.43,26.38,5.43,28.51,18.36a44.92,44.92,0,0,1,.59,7.42V135.79c0,12.18-7,21.48-18.17,24.19-14.25,3.47-28.53-7.55-28.62-22.28C108.91,119.5,109,101.3,109,83.11Z" transform="translate(0 0)"></path><path class="cls-1" d="M225.36,52.66H188.55c-11.64,0-20.4-7.8-22.7-20.06-1.83-9.75,5-21.13,14.84-24.78a22.29,22.29,0,0,1,8-1.4h73.61c12.85,0,22.81,10.28,22.78,23.34a22.76,22.76,0,0,1-22.63,22.89h-.23C249.89,52.68,237.65,52.66,225.36,52.66Z" transform="translate(0 0)"></path><path class="cls-1" d="M206.45,66.9c6.08,0,12.15-.1,18.23,0,11.55.24,21,8.32,22.39,20,1.54,12.8-6.56,23.84-18.28,26a31.7,31.7,0,0,1-6.44.66c-11.92-.23-23.84.53-35.76-.46-16.68-1.38-26.52-20.78-17.62-34.93,4.78-7.59,11.58-11.37,20.55-11.34Z" transform="translate(0 0)"></path><path class="cls-1" d="M303.33,90.33a23.19,23.19,0,1,1-23-23.4,23.19,23.19,0,0,1,23,23.4Z" transform="translate(0 0)"></path><path class="cls-1" d="M310.14,9.35c-2.59-2.16-3-5.15-1.11-7.49a5.32,5.32,0,0,1,7.5-.58h0c2.33,2,2.26,5.25-.17,7.82l-.48-.49c2-3.91,1.17-6.87-2.08-7.39A3.75,3.75,0,0,0,309.65,3c-1.24,2.15-.56,4.09.89,5.88Z" transform="translate(0 0)"></path><path class="cls-1" d="M316.37,9.11c-2,1.82-4.09,1.83-6.23.23.14-.15.27-.3.41-.44a6.14,6.14,0,0,0,5.34-.28Z" transform="translate(0 0)"></path><path class="cls-1" d="M314.74,7.5c-1.38.59-2-3.37-3.57-.06.6-1.76-1.9-4.66,1.51-4.81C317.34,2.42,313.3,6.12,314.74,7.5Z" transform="translate(0 0)"></path><path class="cls-1" d="M153.75,238.86H5.33c-2.69,0-3.55-.47-3.55-2s1-2,3.58-2h297.2a9.55,9.55,0,0,1,1.31,0c1.28.17,2.19.87,2.08,2.2s-1.09,1.72-2.29,1.73H153.75Z" transform="translate(0 0)"></path><path class="cls-1" d="M231.92,208.57a10.1,10.1,0,0,1-2.57-.25,2.89,2.89,0,0,0-2.73.92,2,2,0,0,0-.64,2c.25.83,1.09.69,1.76.69a49.07,49.07,0,0,1,10,.69c3.46.69,6,2.73,6.41,5.21a8.91,8.91,0,0,1-4.2,9.45c-3.92,2.15-8.19,2.42-12.53,2-2.79-.25-5.58-.62-8-2.22a6.4,6.4,0,0,1-.14-10.8c1.31-.87,1.72-1.48.91-3-1.23-2.34.06-5.35,2.7-7,.6-.37,1.29-.56.67-1.49-4.26-6.37,1.17-15.18,8.94-16.14a14,14,0,0,1,5,0c3.45.81,7,.23,10.45.44.62,0,1.87-.47,1.68.71s.24,2.76-1.35,3.36c-1.14.42-2.84-.16-3.42.82s.11,2.28.11,3.46a11.33,11.33,0,0,1-11.18,11.06A10.26,10.26,0,0,1,231.92,208.57Zm-2.13,15.7a12.86,12.86,0,0,0,6.09-1.08,3.32,3.32,0,0,0,1.93-3.87c-.3-1.51-1.62-1.6-2.9-1.81a53.74,53.74,0,0,0-6.71-.32,5.81,5.81,0,0,0-3.93,1.48,3.16,3.16,0,0,0-1.31,3.11c.25,1.2,1.25,1.62,2.33,1.88a14.3,14.3,0,0,0,4.5.61Zm5.14-30.33c-3.37,0-5.41,1.24-6.5,3.88s-.07,4.58,2.59,5.29a7.08,7.08,0,0,0,6.17-1.25,5.64,5.64,0,0,0,1.84-5.67C238.31,194.16,236.65,193.86,234.93,193.94Z" transform="translate(0 0)"></path><path class="cls-1" d="M261.41,191.48a15.93,15.93,0,0,1,7.06-3c5.26-.67,11,2.52,10.68,8.79a55.23,55.23,0,0,1-.92,6.26c-.55,3.36-1.22,6.71-1.72,10.09-.25,1.63-.74,2.52-2.69,2.45-4-.15-4,0-3.35-3.93q1.09-6.42,2.2-12.83c.6-3.45-2.36-5.68-6.22-4.83-5,1.1-6.7,4.56-7.24,9.18-.44,3.75-1.23,7.47-1.89,11.19-.2,1.15-2.83,1.67-5.48,1.16-1.44-.27-.88-1.37-.76-2.07q2.86-16.31,5.83-32.59a1.36,1.36,0,0,1,.08-.56c1.19-6-.23-4.56,5.78-4.78,1.1,0,1.39.33,1.17,1.45C263.08,182,262.31,186.48,261.41,191.48Z" transform="translate(0 0)"></path><path class="cls-1" d="M61.85,204.84H53.59c-1.8,0-1.94.27-1.18,2,1.61,3.57,5.52,5.11,9.85,3.87a6.79,6.79,0,0,0,2.84-1.38c1.14-1.06,2-.69,2.77.35.19.24.42.45.64.68,2.24,2.31,2.28,2.37-.46,4-8.4,5.06-20.27,1.77-22.51-8.41-1.31-6,.82-12,5.43-15.09a14.83,14.83,0,0,1,16.26,0c3.73,2.64,5.86,8.73,4.64,13.07-.26.94-.89.89-1.58.89Zm-3-4.83h5.07c1.92,0,2.16-.4,1.39-2.22A6.59,6.59,0,0,0,58.57,194c-3.1.25-5.92,2.46-6.58,5-.23.93.25.92.86.92Z" transform="translate(0 0)"></path><path class="cls-1" d="M190.37,204.83c-2.81,0-5.63.07-8.44,0-1.5,0-1.69.65-1.46,1.83a6,6,0,0,0,6.82,4.49,11.12,11.12,0,0,0,5.58-2c1-.77,1.7-.61,2.54.31,2.81,3,2.8,3.69-1,5.37-5.06,2.24-10.23,2.87-15.21-.21-4.32-2.67-5.57-6.9-5.1-11.65a15.93,15.93,0,0,1,16.43-14.55c10.09.39,12.38,7.88,10.19,15.37-.28,1-.91,1-1.72,1ZM188.31,200h4.86c2.39,0,2.88-.81,1.87-3.08a4.26,4.26,0,0,0-2.09-2.27c-3.64-1.67-9.43.54-11,4.16-.42,1-.19,1.22.78,1.2C184.57,200,186.44,200,188.31,200Z" transform="translate(0 0)"></path><path class="cls-1" d="M94.94,212.83a11.59,11.59,0,0,1-8,3.8c-7.21.47-11.7-4.84-10-10.87,1-3.4,4.7-5.87,9.23-6.12a23.05,23.05,0,0,1,7.07.61c1.54.41,1.87-.19,1.71-1.58-.35-3-3-4.82-6.64-4.51a13.7,13.7,0,0,0-6.38,1.93c-.9.58-1.37.41-1.91-.48-2-3.36-1.93-3.93,1.75-5.46a19.62,19.62,0,0,1,11.16-1.44c5,.89,8.11,4.15,8.27,9.16.18,5.6.06,11.21.1,16.82,0,1-.31,1.41-1.29,1.3h-.19a13.54,13.54,0,0,1-3.54-.11C94.9,215.47,96.13,213.76,94.94,212.83Zm-6.38-8.74a7.43,7.43,0,0,0-3.73.81,3.11,3.11,0,0,0-1.81,3,3,3,0,0,0,2,2.89,7.82,7.82,0,0,0,6.33-.45,6.2,6.2,0,0,0,3.38-3.56c.38-1.06.36-1.92-1.12-2.12a32.94,32.94,0,0,0-5-.57Z" transform="translate(0 0)"></path><path class="cls-1" d="M146.37,194.75c-4.58,0-4.54,0-5.33,4.76-.84,5-1.81,10-2.6,15-.2,1.24-.74,1.49-1.84,1.51-4.78.09-4.75.13-3.91-4.49.92-5.12,1.76-10.26,2.66-15.38.19-1.07-.19-1.54-1.28-1.43a3.14,3.14,0,0,1-.75,0c-1-.15-2.65.54-2.92-.41-.45-1.55.2-3.3.71-4.87.22-.66,1.25-.32,1.91-.33,3.77,0,3.76,0,4.26-3.69,1.32-9.73,10.74-11.86,17.21-8.89,1.34.61,1.95,1.33.58,2.58a7.84,7.84,0,0,0-1.23,1.63c-.67,1.1-1.23,1.52-2.78,1-4.46-1.48-8.1,1.69-8,6.6,0,1,.67.73,1.15.74h6.37c.93,0,1.3.15,1.11,1.28C151,194.74,151,194.75,146.37,194.75Z" transform="translate(0 0)"></path><path class="cls-1" d="M300.24,194.75c-5,0-4.95,0-5.8,4.73-.43,2.39-.9,4.76-1.34,7.14-.55,3,1.32,4.77,4.27,4a8.19,8.19,0,0,0,3.13-1.2c.91-.7,1.32-.31,1.64.54l.21.52c1.61,4.1,1.43,4.56-2.89,5.65a13.27,13.27,0,0,1-8.42-.36c-3.49-1.42-5.05-4.61-4.32-8.74.64-3.61,1.25-7.22,2-10.8.26-1.26-.1-1.51-1.26-1.54-3.86-.11-3.75-.12-3.14-4,.23-1.45.85-1.67,2.09-1.67,3.39,0,3.39,0,4.08-3.4a2.42,2.42,0,0,1,.1-.36c1-4.54,1-4.51,5.75-4.13,1.05.08,1.25.47,1.05,1.42-.36,1.64-.59,3.3-.93,4.95-.22,1.13.13,1.59,1.34,1.56,2.31-.06,4.63,0,6.94,0,1.19,0,1.61.42,1.34,1.56a.23.23,0,0,1-.05.17C305.28,194.75,305.28,194.75,300.24,194.75Z" transform="translate(0 0)"></path><path class="cls-1" d="M8.89,203.42a7.15,7.15,0,0,0,4.2,6.52,7.41,7.41,0,0,0,8.56-1.18c.82-.72,1.35-.68,2,.07A15,15,0,0,0,25,210.12c2.32,2,2.29,2.34-.45,4.2a15.48,15.48,0,0,1-16.32,0A14.33,14.33,0,0,1,2.72,199c2.6-10.85,15.78-13.29,23.11-7.22.77.63,1,1.21.13,1.94a8.35,8.35,0,0,0-1.22,1.16c-1.3,1.51-2.22,2.11-4.44.66C15,192,8.86,196.08,8.89,203.42Z" transform="translate(0 0)"></path><path class="cls-1" d="M102.36,256.47c2.31-2.11,4.49-3,7.08-2.2a6.31,6.31,0,0,1,1.38.55c1.94,1.12,2.53,1.14,4.6,0,4.47-2.38,9.44.23,9.73,5.24.19,3.3,0,6.61.07,9.92,0,1.69-1.18,1.26-2.09,1.3s-2,.19-2-1.43c.09-2.8,0-5.61,0-8.41,0-2.41-1-3.56-3.09-3.63-2.4-.07-4.05,1.32-4.11,3.61-.07,2.62-.1,5.25,0,7.86.06,1.52-.38,2.05-2,2.07s-2.16-.53-2.08-2.15c.13-2.56.06-5.12,0-7.67s-1.06-3.7-3.2-3.72a3.59,3.59,0,0,0-4,3.15,4,4,0,0,0,0,.6c-.07,2.68-.14,5.37,0,8,.11,1.77-.84,1.68-2.06,1.71s-2.07-.15-2-1.79c.11-4.43,0-8.86,0-13.29,0-.8-.35-1.92,1.09-1.89S102.65,253.78,102.36,256.47Z" transform="translate(0 0)"></path><path class="cls-1" d="M39.27,196.24v17.94c0,1.32-.25,1.86-1.73,1.85-4.63,0-4.63,0-4.63-4.54V178.24c0-1.61.27-2.3,2.12-2.23,4.25.14,4.25,0,4.25,4.36Z" transform="translate(0 0)"></path><path class="cls-1" d="M232.3,260.09c-1,3.26-2.17,6.49-3.09,9.78-.42,1.52-1.41,1.5-2.57,1.46s-2.38.29-2.92-1.47c-1.43-4.7-3.06-9.35-4.67-14-.41-1.15-.24-1.45,1-1.54,2-.14,3,.36,3.53,2.47a48.73,48.73,0,0,0,3.14,9c1.05-3.22,2.18-6.42,3.1-9.68a2,2,0,0,1,2.2-1.78l.15,0c1.37,0,2.47,0,2.94,1.73.89,3.35,2,6.64,3.23,10.4,1.19-3.84,2.25-7.22,3.3-10.59.4-1.28,3.12-2.17,4.17-1.37.46.36.27.8.14,1.19-1.66,4.89-3.31,9.79-5,14.66-.6,1.71-2.13.77-3.25,1a1.41,1.41,0,0,1-1.78-.9,1.17,1.17,0,0,1,0-.2c-1-3.39-2.14-6.74-3.22-10.11Z" transform="translate(0 0)"></path><path class="cls-1" d="M114.48,192.59c2-2,3.89-3.51,6.47-4,1.84-.32,4.25-.71,5.13.56s-.62,3.47-1,5.26c-.17.72-.76.39-1.24.3-5.83-1-9,1.64-9,7.5v12.16c0,1.22-.36,1.59-1.59,1.61-4.8.07-4.8.11-4.8-4.74V190.86c0-1.39.37-2,1.78-1.77a4.7,4.7,0,0,0,.75,0C114.1,189.14,114.1,189.14,114.48,192.59Z" transform="translate(0 0)"></path><path class="cls-1" d="M162.44,192.11c2.32-1.85,4.46-3.33,7.19-3.58a15.45,15.45,0,0,1,1.67-.13c3.19.08,3.51.54,2.4,3.39-.25.64-.57,1.26-.76,1.91-.27.93-.82,1.07-1.71.92A8.63,8.63,0,0,0,161,201.3c0,.2-.07.4-.1.6-.74,4.22-1.54,8.42-2.21,12.65-.17,1.09-.57,1.51-1.66,1.49-6.09-.1-5,.78-4-4.86,1.09-6.54,2.34-13,3.39-19.6.3-1.85.9-2.85,2.92-2.47a4.11,4.11,0,0,0,1.31,0c1.37-.18,2,.31,1.77,1.75A6.53,6.53,0,0,0,162.44,192.11Z" transform="translate(0 0)"></path><path class="cls-1" d="M292.94,255.64c0-2.62.12-5.15,0-7.67-.11-1.79.91-1.61,2.09-1.68,1.33-.07,1.85.25,1.84,1.73-.08,7,0,14-.07,20.92,0,.83.69,2.15-1,2.36-1.35.17-2.64.2-2.75-1.7-4.63,2.8-8.34,2.6-11.22-.51a9.7,9.7,0,0,1-.58-11.78C283.77,253.82,287.45,253.26,292.94,255.64Zm-9.32,7.2c0,3,1.91,5.09,4.74,5.17a5.17,5.17,0,0,0,0-10.34c-2.71,0-4.71,2.19-4.71,5.17Z" transform="translate(0 0)"></path><path class="cls-1" d="M13.14,247.5a12.15,12.15,0,0,1,8.51,3.28c1,.88,1,1.5-.17,2.3s-2.2,1.5-3.8.06c-2.89-2.6-7.88-2-10.33,1-2.71,3.2-2.42,8.94.6,11.63a7.94,7.94,0,0,0,10.6-.3c1.06-1.06,2-.83,3.71.88,1.12,1.12-.19,1.54-.67,2a12.5,12.5,0,0,1-14.08,2.12,12,12,0,0,1-6.25-12.54C2.32,251.42,6.76,247.49,13.14,247.5Z" transform="translate(0 0)"></path><path class="cls-1" d="M259.28,269.12c-2.55,2.18-5,3.17-7.92,2.27a5,5,0,0,1-3.79-5,4.79,4.79,0,0,1,3.54-4.92,11.75,11.75,0,0,1,6.28-.23c1.47.27,1.81-.19,1.3-1.6a3.22,3.22,0,0,0-3.07-2,7.12,7.12,0,0,0-4.48,1c-1.28.78-1.46-.19-1.89-.91s-.83-1.49.34-2.12a12.82,12.82,0,0,1,6.82-1.67c4.18.24,6.43,2.66,6.5,6.91,0,2.8,0,5.6,0,8.4,0,1,.28,2.07-1.36,2.05C260.21,271.34,258.94,271.42,259.28,269.12Zm-4-5.23a13.08,13.08,0,0,0-1.53.09,2.23,2.23,0,0,0-2.15,2.18,2.11,2.11,0,0,0,2.18,2.11,5.16,5.16,0,0,0,4.12-1.36c.61-.55,1.21-1.28.94-2.1s-1.21-.7-1.92-.82a15.77,15.77,0,0,0-1.68-.1Z" transform="translate(0 0)"></path><path class="cls-1" d="M138.91,264.33H134c-1.34-.06-1.28.48-.81,1.42,1.2,2.39,4.45,3.17,7.18,1.68a2.44,2.44,0,0,1,3.34.83,3.18,3.18,0,0,1,.16.32c.33.64-.06.9-.44,1.23-2.71,2.37-8,2.51-11.23.3a9.16,9.16,0,0,1-2.94-10.86c1.41-3.65,5-5.63,9.2-5.07a7.54,7.54,0,0,1,6.88,8.15l-.06.49c-.16,1.12-.51,1.63-1.73,1.55C142,264.25,140.47,264.33,138.91,264.33Zm-1.93-3h3.16c1.44.07,1.37-.64.91-1.61-1.24-2.61-5.54-2.89-7.42-.46-.41.54-.94,1.18-.62,1.82s1,.21,1.55.23c.81,0,1.61,0,2.42,0Z" transform="translate(0 0)"></path><path class="cls-1" d="M95.17,262.88a8.63,8.63,0,0,1-8.4,8.85h-.51A8.88,8.88,0,0,1,86.12,254a8.65,8.65,0,0,1,9,8.26C95.17,262.44,95.18,262.66,95.17,262.88Zm-4.06,0a4.87,4.87,0,0,0-4.58-5.14h-.21a5.18,5.18,0,0,0-.15,10.33,4.89,4.89,0,0,0,5-4.83c0-.13,0-.27,0-.4Z" transform="translate(0 0)"></path><path class="cls-1" d="M184.89,262.83a8.83,8.83,0,1,1,8.78,8.9,8.53,8.53,0,0,1-8.78-8.29C184.88,263.24,184.88,263,184.89,262.83Zm13.59.11c0-3.1-1.94-5.23-4.83-5.26a4.74,4.74,0,0,0-4.69,4.79c0,.07,0,.14,0,.21-.05,3.14,1.91,5.38,4.69,5.35a4.78,4.78,0,0,0,4.83-4.73C198.49,263.18,198.49,263.06,198.48,262.94Z" transform="translate(0 0)"></path><path class="cls-1" d="M208.34,216c-3.18,0-3.2,0-2.7-2.81,1.34-7.51,2.74-15,4-22.53.23-1.35.8-1.68,2-1.57h.56c4.2,0,4.19,0,3.45,4.06-1.22,6.66-2.41,13.32-3.63,20C211.46,216,211.44,216,208.34,216Z" transform="translate(0 0)"></path><path class="cls-1" d="M38.05,269.42c-4.76,4.47-10.61,1.53-11.24-2.59-.59-3.83-.28-7.72-.14-11.58.06-1.55,1.69-.7,2.61-.86s1.36.31,1.34,1.29v8.42c0,2.42,1.24,3.82,3.34,3.89a3.81,3.81,0,0,0,3.88-3.74v-.19c0-2.68.11-5.37,0-8.05-.09-1.81,1-1.6,2.16-1.66s1.94.22,1.91,1.73c-.09,4.36,0,8.73-.06,13.1,0,.8.54,2.06-1,2.14C39.55,271.42,38,271.79,38.05,269.42Z" transform="translate(0 0)"></path><path class="cls-1" d="M173.74,264.64c0-1.68-.07-3.37,0-5.05.07-1.23-.36-1.74-1.59-1.57s-2-.11-1.89-1.66c.07-1.3.17-2.25,1.8-2s1.65-.63,1.69-1.87c.16-5.47,4.67-8.32,9.61-6.1.56.25,1.6.47,1,1.37s-.44,2.63-2.19,2.24a6.08,6.08,0,0,0-2.58-.23c-1.89.4-1.79,1.93-1.83,3.4s1.13,1.11,2,1.18c.5.05,1,0,1.5,0,2,0,2.81,1.2,2.13,3.09-.27.77-.88.54-1.4.56-4.18.18-4.18.18-4.18,4.38,0,2.49-.07,5,0,7.47.07,1.77-1.1,1.44-2.12,1.47s-2,.12-2-1.46C173.81,268.13,173.74,266.42,173.74,264.64Z" transform="translate(0 0)"></path><path class="cls-1" d="M52.54,271.79A16.69,16.69,0,0,1,46,270.16c-1.51-.73-.65-1.54-.32-2.41s.77-1.23,1.78-.69a10.77,10.77,0,0,0,6.19,1.06c1.08-.1,2.07-.49,2.15-1.68s-1-1.34-1.8-1.56a48.18,48.18,0,0,1-5.28-1.25c-1.67-.65-2.94-1.63-3-3.61s.45-3.86,2.42-4.88c3.5-1.8,7-1.4,10.43.25,1.19.57.54,1.33.19,2s-.42,1.68-1.68,1a9,9,0,0,0-5.1-.86c-1,.1-2,.29-2.11,1.45s.87,1.46,1.81,1.67c1.52.33,3.06.61,4.56,1,2,.58,3.5,1.67,3.69,3.94a5.06,5.06,0,0,1-3.06,5.1A10.87,10.87,0,0,1,52.54,271.79Z" transform="translate(0 0)"></path><path class="cls-1" d="M64.51,262.64a17.53,17.53,0,0,1,0-2.05c.19-1.72,0-2.95-2.27-2.6-1.35.21-1-.95-1-1.69s-.37-2.07,1-1.89c2.33.3,2.34-1,2.26-2.66-.09-2.17,1.3-3,3.41-2.3.78.27.58.86.6,1.38.15,3.53.15,3.5,3.75,3.55,1.09,0,2.6-.64,2.61,1.57,0,1.59-.35,2.16-2.07,2.12-4.28-.12-4.29,0-4.29,4.23v2.24c0,3,1.65,4.21,4.36,2.92,2.16-1,1.82,1,2.44,1.73.86,1-.19,1.38-.88,1.74-5.12,2.62-9.94-.31-10-6Z" transform="translate(0 0)"></path><path class="cls-1" d="M270.8,256.72c1.94-1.9,3.71-2.9,5.89-2.7.64,0,2-.21,1.66,1s.2,3.07-2,2.88a4.51,4.51,0,0,0-4,1.21,4.42,4.42,0,0,0-1.15,3.25c0,2.49-.09,5,0,7.47.08,1.55-.78,1.54-1.86,1.5s-2.27.29-2.23-1.57c.09-4.48,0-9,0-13.45,0-1-.17-2,1.43-2C269.91,254.42,271.31,254.13,270.8,256.72Z" transform="translate(0 0)"></path><path class="cls-1" d="M152.88,256.42c1.47-1.4,3.09-2.47,5.12-2.36.74,0,2.11-.42,2.1,1.11,0,1.87-.87,2.83-2.3,2.77-3.16-.14-4.79,1.37-4.82,4.52,0,2.48-.07,5,0,7.46.06,1.78-1.14,1.41-2.15,1.45s-2,.09-1.93-1.48c.08-4.41,0-8.83,0-13.25,0-.85-.58-2.09,1.11-2.25C152.06,254.17,152.43,254.36,152.88,256.42Z" transform="translate(0 0)"></path><path class="cls-1" d="M209.81,256.5c2.19-1.85,4.13-2.79,6.57-2.34.94.17,1,.47.84,1.34-.41,1.63-.83,2.71-3,2.45-2.36-.28-4,1.61-4.07,4.13s-.1,5.11,0,7.66c.07,1.62-.92,1.44-1.93,1.42s-2,.25-2-1.39c.08-4.42,0-8.85.05-13.27,0-.73-.54-2,1-1.94C208.35,254.59,210,253.77,209.81,256.5Z" transform="translate(0 0)"></path><path class="cls-1" d="M218.31,181.42a4.62,4.62,0,0,1-4.14,4.29,3.75,3.75,0,0,1-3.71-3.79v-.08a4.61,4.61,0,0,1,4.23-4.22A3.92,3.92,0,0,1,218.31,181.42Z" transform="translate(0 0)"></path><path class="cls-1" d="M305.71,269a2.59,2.59,0,1,1-5.18.25h0a2.49,2.49,0,0,1,2.26-2.7H303a2.53,2.53,0,0,1,2.72,2.34A.49.49,0,0,1,305.71,269Z" transform="translate(0 0)"></path></svg>