<svg xmlns="http://www.w3.org/2000/svg" id="Layer_1" data-name="Layer 1" viewBox="0 0 136.62 81.71"><defs><style>.cls-1{fill:#fff;}</style></defs><path class="cls-1" d="M73.16,0a16.45,16.45,0,0,1,3.13,1.05C79,2.6,80.21,5.17,80.6,8.17a13.18,13.18,0,0,1,.08,1.66V47.77a10.83,10.83,0,0,1-1.39,5.51,7.43,7.43,0,0,1-13.09.11,11,11,0,0,1-1.49-5.8V9.65c0-3.42,1.08-6.46,4.1-8.41A16.12,16.12,0,0,1,72.1,0ZM70.4,28.62v19.5a6.25,6.25,0,0,0,0,1.06,2.23,2.23,0,0,0,2.2,1.94,2.19,2.19,0,0,0,2.21-1.73A6.17,6.17,0,0,0,75,48V9.27a6.91,6.91,0,0,0,0-.91,2.28,2.28,0,0,0-2.4-2.14,2.23,2.23,0,0,0-2.16,2.29V28.62Z" transform="translate(0)"></path><path class="cls-1" d="M0,26.4c.25-1.4.43-2.83.75-4.22A28.63,28.63,0,0,1,24.48.33C25.38.2,26.27.11,27.17,0h3c1.37.2,2.74.36,4.09.62A28.61,28.61,0,0,1,56.77,23.71c1.55,9.66-1,18.13-7.9,25.08a27.25,27.25,0,0,1-23.15,8.3A28.3,28.3,0,0,1,.88,35.62C.53,34.28.39,32.89.14,31.53A2.37,2.37,0,0,0,0,31Zm1,2.25A27.62,27.62,0,1,0,28.6,1h-.31A27.63,27.63,0,0,0,1,28.65Z" transform="translate(0)"></path><path class="cls-1" d="M89.4,81.65a2.56,2.56,0,0,1-2-2.83v-10c0-1.67.86-2.77,2.15-2.79s2.22,1.14,2.23,2.81v9.87a2.65,2.65,0,0,1-2,3ZM89,73.85V78.7c0,.48-.11,1.15.63,1.15s.59-.68.63-1.16V69.06a1.85,1.85,0,0,0-.07-.74c-.12-.24-.38-.56-.56-.55s-.46.32-.59.55A1.52,1.52,0,0,0,89,69Z" transform="translate(0)"></path><path class="cls-1" d="M6.07,81.65a2.69,2.69,0,0,1-1.9-2.94V68.79a5.32,5.32,0,0,1,.12-.8,2.23,2.23,0,0,1,2.14-2,2.24,2.24,0,0,1,2.1,2,5.89,5.89,0,0,1,0,.84v9.84A2.7,2.7,0,0,1,6.67,81.6ZM7,73.87v-5.3c0-.29-.36-.56-.56-.84-.21.23-.6.47-.61.7v11s.36.41.54.42a.82.82,0,0,0,.57-.38A1.36,1.36,0,0,0,7,78.8Z" transform="translate(0)"></path><path class="cls-1" d="M100.63,81.65a2.76,2.76,0,0,1-1.86-3V68.79a4.35,4.35,0,0,1,.2-1.34A2.13,2.13,0,0,1,101.11,66a1.91,1.91,0,0,1,1.74,1.82c.1,1.2,0,2.41,0,3.67h-1.24V68.88a2.22,2.22,0,0,0-.13-.81.64.64,0,0,0-.5-.37.86.86,0,0,0-.58.38,1.37,1.37,0,0,0-.1.66V79.1c.21.27.43.52.65.78.22-.24.58-.46.62-.72a18.74,18.74,0,0,0,0-2.12V76h1.21c0,1.28.07,2.56,0,3.83a2,2,0,0,1-1.6,1.73Z" transform="translate(0)"></path><path class="cls-1" d="M122.64,81.65a2.5,2.5,0,0,1-1.85-2.76V77h1.42V79c0,.51.1,1,.72,1s.79-.58.72-1.05a17.17,17.17,0,0,0-.66-3.17c-.52-1.6-1.21-3.15-1.78-4.74A5.83,5.83,0,0,1,121,67.8a2.12,2.12,0,0,1,2.1-1.82,2,2,0,0,1,2,1.85,7.55,7.55,0,0,1,.07,1.06V70.8h-1.39V68.47c0-.3-.1-.88-.6-.76a1.09,1.09,0,0,0-.69.78,5.14,5.14,0,0,0,.19,1.87c.34,1.11.83,2.16,1.19,3.26a43.49,43.49,0,0,1,1.3,4.49,3.62,3.62,0,0,1-.24,2.13c-.27.57-1,1-1.45,1.41Z" transform="translate(0)"></path><path class="cls-1" d="M114.5,32.3V56.54h-5.58V.77h7.81c3.86,0,6.36,2.05,7,5.83a17.77,17.77,0,0,1,.3,3.09V23a7.94,7.94,0,0,1-.93,4.25,24,24,0,0,1-2,2.49c.2.17.51.42.8.68A7.19,7.19,0,0,1,124.29,36c0,5,0,10,.06,15a25.79,25.79,0,0,0,.64,3.7c.1.64.14,1.29.21,2a28.2,28.2,0,0,1-3.9,0,2.45,2.45,0,0,1-1.44-1.18,10,10,0,0,1-1.08-5.2V34.62c-.17-1.66-.88-2.3-2.56-2.3Zm0-25.59V24.58c0,2,0,2,2,2a1.63,1.63,0,0,0,1.79-1.32,5.52,5.52,0,0,0,.24-1.56V9.28a3.74,3.74,0,0,0-.3-1.62,1.84,1.84,0,0,0-1.09-.9,15.29,15.29,0,0,0-2.62,0Z" transform="translate(0)"></path><path class="cls-1" d="M91.36,6.81H86.42v-6h15.21v6H97V56.52H91.36Z" transform="translate(0)"></path><path class="cls-1" d="M15.67,66.2h.93c.49,0,.64.17.72.63.43,2.54.9,5.07,1.36,7.6,0,.07.06.12.21.39V66.24h1.32V81.37H19L17.07,72.5H17v8.88H15.67Z" transform="translate(0)"></path><path class="cls-1" d="M50.35,81.39H48.86V74.81h-1.2v6.56H46.11V66.24h1.52V73h1.2V66.24h1.52Z" transform="translate(0)"></path><path class="cls-1" d="M76.23,66.21h2.45a1.64,1.64,0,0,1,1.61,1.65c.08,1.66.06,3.33,0,5a4.21,4.21,0,0,1-.57,1.28,2.62,2.62,0,0,1,.71,2.18c0,1.68,0,3.36.09,5.07-1.08.27-1.53,0-1.58-1.22-.06-1.46,0-2.93,0-4.4,0-.85-.2-1-1.12-.87v6.47H76.23Zm1.6,7c.68.17,1-.07,1-.74v-3.8c0-.72-.33-.86-1-.68Z" transform="translate(0)"></path><path class="cls-1" d="M111.74,75.6l-.3,5.77H110V66.22h1.49v6.36h.16c.32-1.71.64-3.43,1-5.14v-.08c.22-1.29.22-1.29,1.66-1.1-.32,1.63-.58,3.27-1,4.88a8.27,8.27,0,0,0,0,3.36c.36,2.12.68,4.24,1,6.36a4.17,4.17,0,0,1,0,.5h-1.48c-.25-1.92-.49-3.83-.74-5.75Z" transform="translate(0)"></path><path class="cls-1" d="M61.12,81.4H57.66V66.23h3.46v1.56H59.23v4.92l1.28.07v1.55l-1.3.08v5.34h1.91Z" transform="translate(0)"></path><path class="cls-1" d="M36.44,67.85h-1.3V66.26h4.09v1.56l-1.16.08V81.36H36.44Z" transform="translate(0)"></path><path class="cls-1" d="M135.66,5.88V2.34h-.16c-.35,1-.7,2-1,3-.12.35-.24.75-.7.58a1.14,1.14,0,0,1-.61-.59,27.79,27.79,0,0,0-1.23-3V5.88h-.91v-5c1.28-.34,1.42-.26,1.85.93l.93,2.58c.34-.94.64-1.72.92-2.51.45-1.23.44-1.24,1.87-1V5.91Z" transform="translate(0)"></path><path class="cls-1" d="M125.6.77h4.46v.85h-1.63V5.88h-1.09V1.71h-1.7Z" transform="translate(0)"></path><path class="cls-1" d="M28.58,54.11A25.47,25.47,0,1,1,54.06,28.65v.06a25.44,25.44,0,0,1-25.48,25.4Zm2-26V25.6a1.39,1.39,0,0,1,.53-1.24c2.24-2,4.45-4,6.67-6.08.6-.56,1.22-1.1,1.86-1.68,3,2.71,5.88,5.36,8.77,8a1.07,1.07,0,0,1,.23.75v2.72h4.45A24,24,0,0,0,39.85,7C30.67,2.37,21.74,3.21,13.56,9.42c-6.1,4.63-9.08,11-9.46,18.68H8.65V25.4a1.48,1.48,0,0,1,.42-.95c1.75-1.65,3.53-3.25,5.31-4.87,1.07-1,2.15-2,3.22-2.94l.19.1q4.34,4,8.64,7.87a1.16,1.16,0,0,1,.25.74v2.76Zm-3.89,1.06v2.49A1.56,1.56,0,0,1,26.08,33c-1.31,1.15-2.58,2.35-3.87,3.52L17.7,40.71l-.24-.14C14.63,38,11.79,35.4,9,32.79a1.21,1.21,0,0,1-.3-.79V29.22H4.19a23.88,23.88,0,0,0,11.24,20c8.51,5.25,17.32,5.4,25.9.26C48.86,45,52.6,38,53.14,29.18H48.57v2.59A1.41,1.41,0,0,1,48.06,33c-2.2,2-4.37,4-6.55,6-.64.59-1.3,1.17-2,1.77-2.93-2.67-5.81-5.29-8.66-7.94a1.23,1.23,0,0,1-.31-.78V29.19Zm20.45-4.32L40.07,18.4v5.94a.73.73,0,0,0,.17.47c1.14,1,2.3,2.09,3.47,3.16Zm-30-6.48-7,6.49L13.51,28c1.18-1.07,2.3-2.08,3.41-3.11a.92.92,0,0,0,.24-.59c0-1.89,0-3.78,0-5.9Zm26.54,11a24.86,24.86,0,0,1-2.23,2A3.29,3.29,0,0,0,40,34.65c.13,1.36,0,2.74,0,4.3l7.07-6.46ZM17.13,39V33a.67.67,0,0,0-.18-.4c-1.14-1.06-2.29-2.1-3.48-3.2l-3.38,3.08ZM35.41,28a17.53,17.53,0,0,1,1.88-1.67,3.92,3.92,0,0,0,1.84-4.1,30.59,30.59,0,0,1,0-3.83l-7.08,6.47Zm-13.6,1.35-1.27,1.15c-.79.74-1.87,1.35-2.27,2.26s-.12,2.13-.13,3.22v3l7.09-6.48ZM18.29,18.49a1.36,1.36,0,0,0-.11.28v5.52a.86.86,0,0,0,.27.58c1.1,1,2.22,2.05,3.38,3.11l3.42-3.13ZM39.08,38.92V33a.71.71,0,0,0-.15-.48c-1.15-1.08-2.32-2.14-3.51-3.22L32,32.45ZM36.15,28.65l3.42,3.13L43,28.64l-3.43-3.11ZM17.66,25.52l-3.37,3.19,3.41,3.12,3.41-3.13Zm-8,.28v5.71l3.12-2.86Zm37.92,5.7V25.8l-3.12,2.85Zm-21.9-5.71-3.13,2.92,3.12,2.84Zm5.92,0v5.64l3.09-2.83Z" transform="translate(0)"></path></svg>