<svg xmlns="http://www.w3.org/2000/svg" id="Layer_1" data-name="Layer 1" viewBox="0 0 2498.17 453"><defs><style>.cls-1{fill:#fff;}</style></defs><path class="cls-1" d="M2480.46,449.67a15.85,15.85,0,0,1,0-31.69,15.84,15.84,0,0,1,15.85,15.84,16.41,16.41,0,0,1-15.85,15.85m0-34.74a18.62,18.62,0,1,0,18.62,18.62C2499.08,423.54,2490.75,415.2,2480.46,414.93Z" transform="translate(-0.91)"></path><path class="cls-1" d="M2479.63,431.6H2476v-5.28h5.56c2.22,0,5,.28,5,2.5.28,3.06-4.45,2.78-6.95,2.78m10-2.78c0-4.45-3.62-5.28-7.23-5.28h-8.89v20.57h2.78v-9.45h3.61l6.11,9.45h3.34l-6.12-9.45c3.34-.28,6.12-2,6.4-5.84m-129.23,23.9a310.2,310.2,0,0,0,9.72-31.12,287.34,287.34,0,0,0,5.28-106.72,298.92,298.92,0,0,1-4.72,35.29c.83,2.5,2.22,6.67,2.78,9.17a321.53,321.53,0,0,1-10.84,56.42,176.51,176.51,0,0,0-6.12-18.34A503.34,503.34,0,0,1,2331,453Z" transform="translate(-0.91)"></path><path class="cls-1" d="M2298.71,452.72h16.95c48.36-71.42,50.86-134.79,50.86-147a176.35,176.35,0,0,0-10.28-60.87,282.21,282.21,0,0,0-25.57-48.91,257,257,0,0,1,6.95,25c0,.56.27,1.11.27,1.67,3.06,5.28,17,29.74,18.9,56.69s-9.72-13.61-17.23-22.51a233.91,233.91,0,0,1-5.28,43.91,292.88,292.88,0,0,1,21.12,27.79,247.28,247.28,0,0,1-13.89,46.42,302.21,302.21,0,0,0-22-27.8,421.5,421.5,0,0,1-26.4,52.53s18.34,21.68,22.51,27.79c-5.56,8.9-10.84,16.95-16.95,25.29Z" transform="translate(-0.91)"></path><path class="cls-1" d="M2238.12,452.72c32.24-35.85,59.48-78.09,75.87-123.39,14.18-39.19,22-87.27,9.45-129.79-.83-2.78-1.94-5.56-2.78-8.61a96.94,96.94,0,0,0-15-26.68,269.46,269.46,0,0,0-52-45.3,96.59,96.59,0,0,1,7.5,11.11s23.07,17.23,36.69,34.74A187.09,187.09,0,0,0,2269.53,147a152.17,152.17,0,0,1,8.61,29.73,219.67,219.67,0,0,1,38.91,26.68,158.15,158.15,0,0,1,3.34,36.13,298.24,298.24,0,0,0-40.3-29.18,231.38,231.38,0,0,1-5.28,41.69,360.11,360.11,0,0,1,40.3,30.85,291.45,291.45,0,0,1-14.73,45.57A482.21,482.21,0,0,0,2261.47,296a328.68,328.68,0,0,1-24.74,49.47c18.9,16.67,37,33.62,37,33.62A417.31,417.31,0,0,1,2237,427.43l-34.18-33.9a433.24,433.24,0,0,1-45.3,47.8L2168.09,453Z" transform="translate(-0.91)"></path><path class="cls-1" d="M2247,122.28a76.06,76.06,0,0,0-7.51-8.89c-2.5-2.22-5-4.45-7.5-6.39-28.35-21.4-80.6-32-80.6-32,5,2.78,9.18,5.28,9.18,5.28a237.66,237.66,0,0,1,40,14.45s-17-3.89-27.8-5.28c4.45,4.17,8.9,8.34,12.51,13.34,0,0,34.74,6.39,49.75,14.73a77.19,77.19,0,0,1,13.34,20.56,320.47,320.47,0,0,0-50.58-14.73,113.91,113.91,0,0,1,7.78,25.57,334.08,334.08,0,0,1,51.69,17.79,142.41,142.41,0,0,1,2.22,32.51,404.66,404.66,0,0,0-52.24-21.39,164.93,164.93,0,0,1-5.56,35s35.85,16.12,52,25.57a272.13,272.13,0,0,1-14.45,41.41c-24.46-15.84-50.31-30-50.31-30-6.39,15.57-22.51,41.14-22.51,41.14.28.27,27,18.62,47.53,34.74a375,375,0,0,1-34.19,44.18c-4.17-4.17-43.63-38.9-43.63-38.9a449,449,0,0,1-39.46,40l37.79,42.79a480.61,480.61,0,0,1-49.19,35.58l-31.4-45a389.08,389.08,0,0,1-59.76,34.73v13.07h123.4c137-103.67,185.92-252.63,129.51-329.89Z" transform="translate(-0.91)"></path><path class="cls-1" d="M2177,106.72c-34.18-45.86-87.54-39.46-103.66-37.24a243.32,243.32,0,0,0-30.85,6.39,105,105,0,0,1,13.06,1.95c2.78-.56,27.52-6.4,45.3-3.89a214.57,214.57,0,0,0-32.79,7.5A63,63,0,0,1,2080.55,87,247.81,247.81,0,0,1,2130,79.48,146.74,146.74,0,0,1,2147,88.93a268,268,0,0,0-55.59,5.84,66.42,66.42,0,0,1,10.29,11.39,301.23,301.23,0,0,1,61.14-2.78s3.89,4.73,5.56,7.23a80.62,80.62,0,0,1,6.11,10.56,369.53,369.53,0,0,0-65.59-1.11,68.07,68.07,0,0,1,4.45,18.34,404.18,404.18,0,0,1,68.37,6.67,106.84,106.84,0,0,1,.27,26.68,475.59,475.59,0,0,0-68.36-12.23,156.22,156.22,0,0,1-4.45,25.29c3.61.84,43.63,10.29,66.15,19.46-.56,1.39-.84,2.78-1.39,4.17a219.74,219.74,0,0,1-11.95,28.9c-18.07-8.89-62.54-26.13-62.54-26.13a260,260,0,0,1-16.11,30s38.07,21.68,56.41,33.63a317.15,317.15,0,0,1-28.62,35.29c-13.34-11.95-46.41-37.52-48.92-39.46a374.69,374.69,0,0,1-28.34,30l39.74,45.58-1.11,1.11a280.09,280.09,0,0,1-25.85,19.18c-7,4.72-12.51,8.34-14.45,9.45-.56-.84-26.4-42.25-30.57-48.92-2.78,2.23-5.84,4.17-8.62,6.12v85.6c4.73-2.23,9.45-4.45,14.18-7.23a348.79,348.79,0,0,0,64.47-41.41,379.72,379.72,0,0,0,40-36.41,367.47,367.47,0,0,0,42-50.85c44.19-65,55.86-132.57,23.34-176.2Z" transform="translate(-0.91)"></path><path class="cls-1" d="M2088.61,103.38c-16.4-18.62-43.36-25-74.76-20.56l-2.5.28c-2.51.55-4.73.83-7.23,1.39a71.11,71.11,0,0,0-10.28,3.05V97c3.05-2.5,6.39-4.72,9.45-6.95a103.91,103.91,0,0,1,18.34-2.5,268.66,268.66,0,0,0-27.79,18.62v7.23l.27.28s23.07-18.35,41.41-26.13a68.15,68.15,0,0,1,12.79,1.95,269.63,269.63,0,0,0-48.91,27c1.94,1.11,3.89,2.5,5.83,3.89a304.89,304.89,0,0,1,56.14-26.68,45.31,45.31,0,0,1,11.12,6.67,367,367,0,0,0-62.53,25,33.12,33.12,0,0,1,4.44,6.39l.56-.28a402.3,402.3,0,0,1,67.25-21.12,53.76,53.76,0,0,1,6.67,12.51A409.64,409.64,0,0,0,2018,139.23a55.78,55.78,0,0,1,2.22,9.73,455.4,455.4,0,0,1,72.26-9.45,81.71,81.71,0,0,1-.56,18.35c-20.57-1.12-69.48,1.66-71.42,1.66a73.42,73.42,0,0,1-2,13.62,513.38,513.38,0,0,1,68.37,7.23,182.88,182.88,0,0,1-9.45,23.06c-21.68-6.67-54.75-14.45-63.37-16.39a95,95,0,0,1-8.61,16.67s40.3,17.51,55.58,26.12a269.39,269.39,0,0,1-20,24.18c-3.89-2.78-7.5-5.55-10.84-8.06l-36.13-25.29V254L2015,278.47a220,220,0,0,1-20.85,15v19.73l.84-.56A302.73,302.73,0,0,0,2023,291c71.42-62.81,101.16-146.74,65.59-187.6Z" transform="translate(-0.91)"></path><path class="cls-1" d="M1993.56,198.71c18.34-26.13,21.12-56.14,5-70.87a23.17,23.17,0,0,0-5-3.61Zm100.6-140.9c163.14,0,296,133.39,296,297.09a298.42,298.42,0,0,1-16.39,97.54h72.53V0H1993.56V75.59h.28a294.67,294.67,0,0,1,100.32-17.78ZM1763.45,254.57a37.74,37.74,0,0,1-12.23,18.34,52.85,52.85,0,0,1-22,10,157.56,157.56,0,0,1-32.51,3.05h-53.36V166.47h53.36a131.91,131.91,0,0,1,33.07,3.34,49.43,49.43,0,0,1,21.68,10.56,41.56,41.56,0,0,1,12,18.62,90.58,90.58,0,0,1,3.61,27.23,88.23,88.23,0,0,1-3.61,28.35m40.85-110.33a111.65,111.65,0,0,0-42.24-22.79c-17.23-5.56-37.8-8.06-62-8.06h-122V339.33h122c43.36,0,77-9.45,100.88-28.07,23.91-18.89,35.58-47,35.58-84.76a129.79,129.79,0,0,0-7.78-46.13,90.64,90.64,0,0,0-24.46-36.13M1318.51,246.51h123.67V202.32H1318.51V164.8h146.73l-1.11-51.41H1252.92V339.33h217.33l1.11-50.86H1318.51ZM919.42,113.39l-1.67,53.36h86.43V339.33h65.87V166.75h86.43l-1.39-53.36Zm-168.69,0h67V339.33h-67ZM565.08,225.67l.56,24.17-.56.56-17.23-17.51L425.57,113.39h-54.2V339.33h59.76V220.66l-.56-24.45.83-.28,17.23,17.23L581.76,339.33h43.07V113.39H565.08Zm-375.18,15c0,17-4.73,29.74-14.46,38.08s-25,12.5-46.41,12.5-37.24-4.16-47.24-12.5-15-21.12-15-38.08V113.39H.91V240.12c0,35,11.12,61.14,33.08,78.09,21.95,17.23,53.63,25.85,94.77,25.85,41.68,0,73.09-8.62,94.21-25.57,21.4-16.95,32-43.08,32-78.37V113.39h-65Z" transform="translate(-0.91)"></path></svg>